Coordinates
version=1
nRows=24
nColumns=24
inDegrees=yes

Units are S.I. units (second, meters, Newtons, ...)
Angles are in degrees.

endheader
time	pelvis_tilt	pelvis_list	pelvis_rotation	pelvis_tx	pelvis_ty	pelvis_tz	hip_flexion_r	hip_adduction_r	hip_rotation_r	knee_angle_r	ankle_angle_r	subtalar_angle_r	mtp_angle_r	hip_flexion_l	hip_adduction_l	hip_rotation_l	knee_angle_l	ankle_angle_l	subtalar_angle_l	mtp_angle_l	lumbar_extension	lumbar_bending	lumbar_rotation
      1.23000000	      5.52206506	      1.57671435	     -1.67727350	      0.17301102	      1.02224406	      0.03448941	    -19.58904380	      2.51314162	     -3.92768456	     -1.76988343	     10.35067472	      0.00000000	      0.00000000	     10.88925484	      1.41305111	     -1.79736999	     -0.87234218	      5.42944038	      0.00000000	      0.00000000	    -17.60411785	     -4.01124565	      3.36639450
      1.24000000	      5.65493309	      1.62543958	     -1.55959615	      0.17308660	      1.02098551	      0.03341160	    -20.10927121	      2.41041734	     -3.93383745	     -2.07289854	     10.99727793	      0.00000000	      0.00000000	     10.80739000	      1.71794030	     -1.85497376	     -1.16079096	      5.70101654	      0.00000000	      0.00000000	    -17.78382337	     -4.07363207	      3.06754826
      1.25000000	      5.78536427	      1.63133180	     -1.54128840	      0.17332217	      1.01985257	      0.03242876	    -20.60997935	      2.31791702	     -3.95728053	     -2.39061660	     11.25777421	      0.00000000	      0.00000000	     10.84839673	      1.95148667	     -1.99603306	     -1.98518030	      5.73442462	      0.00000000	      0.00000000	    -17.92324983	     -4.12069690	      2.92051028
      1.26000000	      5.94038408	      1.62095992	     -1.53377655	      0.17369779	      1.01882505	      0.03131440	    -21.12268738	      2.21710512	     -3.99011516	     -2.74189275	     11.49377516	      0.00000000	      0.00000000	     10.93516994	      2.17432719	     -2.15398556	     -3.16943772	      5.73988618	      0.00000000	      0.00000000	    -18.08322712	     -4.13949845	      2.80675710
      1.27000000	      6.10288432	      1.57965647	     -1.54518463	      0.17438048	      1.01788487	      0.03038802	    -21.62247657	      2.14425186	     -4.01899783	     -3.17743520	     11.67362293	      0.00000000	      0.00000000	     11.04056282	      2.32569847	     -2.30994283	     -4.59595392	      5.65396622	      0.00000000	      0.00000000	    -18.20423109	     -4.16744128	      2.70053128
      1.28000000	      6.22583421	      1.54679883	     -1.68759714	      0.17540774	      1.01707494	      0.02947486	    -22.07341327	      1.99814866	     -3.95466542	     -3.61301673	     11.63331003	      0.00000000	      0.00000000	     11.02233225	      2.46176518	     -2.23540526	     -5.82964716	      5.21083500	      0.00000000	      0.00000000	    -18.22562748	     -4.23044598	      2.75709341
      1.29000000	      6.41154494	      1.46772313	     -1.70454730	      0.17648126	      1.01643120	      0.02855144	    -22.51192253	      1.93739627	     -3.95832084	     -4.25000766	     11.65021519	      0.00000000	      0.00000000	     11.02898861	      2.55256519	     -2.44181805	     -7.27366724	      4.84107742	      0.00000000	      0.00000000	    -18.33693505	     -4.23807182	      2.62314844
      1.30000000	      6.51476997	      1.37251399	     -1.86917215	      0.17792000	      1.01585710	      0.02769767	    -22.82696772	      1.82326856	     -3.95514806	     -4.93310850	     11.55739287	      0.00000000	      0.00000000	     10.93730095	      2.58752408	     -2.42203921	     -8.41181697	      4.44715319	      0.00000000	      0.00000000	    -18.29226762	     -4.25708992	      2.66436395
      1.31000000	      6.52122824	      1.19667163	     -2.03886937	      0.17923332	      1.01536051	      0.02691912	    -22.74794247	      1.78191582	     -4.00271000	     -6.19532414	     11.60570606	      0.00000000	      0.00000000	     10.96521289	      2.52259571	     -2.60910589	     -9.54573114	      4.04944987	      0.00000000	      0.00000000	    -18.17403954	     -4.20012568	      2.73622159
      1.32000000	      6.35979245	      1.10423539	     -2.31918168	      0.18075942	      1.01488275	      0.02622602	    -22.39029201	      1.59343613	     -3.89862549	     -7.61536363	     11.57047167	      0.00000000	      0.00000000	     11.01781806	      2.50938522	     -2.60555061	    -10.36888362	      3.58672534	      0.00000000	      0.00000000	    -17.83198747	     -4.25698862	      2.85656679
      1.33000000	      6.45149421	      1.02723538	     -2.52731885	      0.18252306	      1.01507190	      0.02544368	    -22.38297375	      1.40500394	     -3.84352540	     -8.83126834	     11.01475686	      0.00000000	      0.00000000	     10.68219601	      2.53490232	     -2.43742696	    -10.97974877	      3.25831118	      0.00000000	      0.00000000	    -17.77654146	     -4.32051844	      2.86109543
      1.34000000	      6.44967395	      0.91906432	     -2.87476226	      0.18416287	      1.01541880	      0.02475264	    -21.85749188	      1.16220330	     -3.99673989	    -10.81424099	     10.51368301	      0.00000000	      0.00000000	     10.31052192	      2.49807330	     -2.48542237	    -11.28720845	      2.97247433	      0.00000000	      0.00000000	    -17.63412721	     -4.36836536	      3.01644047
      1.35000000	      5.93293699	      0.91429360	     -3.29579403	      0.18541241	      1.01509956	      0.02421007	    -20.35613826	      0.80377807	     -3.84335739	    -13.60041601	     10.53840786	      0.00000000	      0.00000000	     10.65233272	      2.51316414	     -2.61656632	    -11.85669674	      2.86585399	      0.00000000	      0.00000000	    -16.94787839	     -4.52721562	      3.14357888
      1.36000000	      5.81166132	      0.97840772	     -3.69470426	      0.18688801	      1.01563580	      0.02354287	    -19.30970386	      0.34994997	     -3.87533075	    -16.22380412	      9.89616896	      0.00000000	      0.00000000	     10.39618497	      2.64036959	     -2.64233974	    -12.12180038	      2.86962271	      0.00000000	      0.00000000	    -16.70450295	     -4.75672826	      3.21913640
      1.37000000	      5.84714789	      0.95990469	     -3.97976553	      0.18834586	      1.01659125	      0.02272671	    -18.40275325	      0.00769645	     -3.93152346	    -18.81690576	      8.76925743	      0.00000000	      0.00000000	      9.93585505	      2.71612545	     -2.56729423	    -12.34968964	      3.15327329	      0.00000000	      0.00000000	    -16.67397051	     -4.87015664	      3.15416792
      1.38000000	      5.46842400	      1.15546659	     -4.46280023	      0.18939081	      1.01683909	      0.02201514	    -16.55455170	     -0.62670177	     -3.91430011	    -22.27063826	      7.96260982	      0.00000000	      0.00000000	     10.05184912	      2.95613284	     -2.68289667	    -12.79958592	      3.43585806	      0.00000000	      0.00000000	    -16.17741026	     -5.21990187	      3.26288307
      1.39000000	      5.21764570	      1.24307530	     -4.76518416	      0.19035110	      1.01732829	      0.02109055	    -14.85091611	     -1.08086427	     -3.88763736	    -25.63018957	      6.76767477	      0.00000000	      0.00000000	     10.02969872	      3.11957376	     -2.71526860	    -13.26032102	      3.91125001	      0.00000000	      0.00000000	    -15.87034757	     -5.40116306	      3.16891859
      1.40000000	      5.34403828	      1.37151855	     -5.01969929	      0.19149568	      1.01842698	      0.02002053	    -13.63884726	     -1.60668185	     -3.96874346	    -28.70217995	      5.04791982	      0.00000000	      0.00000000	      9.47641187	      3.38361986	     -2.73128177	    -13.51251283	      4.50363719	      0.00000000	      0.00000000	    -15.97718058	     -5.62970240	      2.96906503
      1.41000000	      5.12235227	      1.54609725	     -5.29777939	      0.19221786	      1.01875543	      0.01894342	    -11.73707244	     -2.16090398	     -3.95454229	    -32.30921581	      3.68453154	      0.00000000	      0.00000000	      9.39299602	      3.65075823	     -2.87395388	    -13.90452722	      4.95581901	      0.00000000	      0.00000000	    -15.71168260	     -5.87947883	      2.79569641
      1.42000000	      5.38118408	      1.67964563	     -5.43827798	      0.19320447	      1.01983672	      0.01763419	    -10.57745659	     -2.67934738	     -4.06583301	    -35.39923251	      1.81814396	      0.00000000	      0.00000000	      8.64451452	      3.95631611	     -2.95613011	    -14.04937909	      5.56086431	      0.00000000	      0.00000000	    -15.98412952	     -6.07103180	      2.44935276
      1.43000000	      5.56020078	      1.85153160	     -5.58608572	      0.19401273	      1.02061014	      0.01631404	     -9.21434476	     -3.25158426	     -4.18588436	    -38.64931416	      0.12501779	      0.00000000	      0.00000000	      7.96609805	      4.28678221	     -3.13139903	    -14.11789102	      6.04878052	      0.00000000	      0.00000000	    -16.16311833	     -6.29703560	      2.07793379
      1.44000000	      5.52091677	      2.03813091	     -5.70370528	      0.19458059	      1.02080025	      0.01486852	     -7.52719128	     -3.80747335	     -4.26737496	    -42.01136658	     -1.17848050	      0.00000000	      0.00000000	      7.55890790	      4.61508361	     -3.42387729	    -14.21523769	      6.46609203	      0.00000000	      0.00000000	    -16.09847999	     -6.48330102	      1.67204223
      1.45000000	      5.87817715	      2.12248871	     -5.70405488	      0.19522410	      1.02157886	      0.01328366	     -6.44620752	     -4.26386028	     -4.42065867	    -44.98636603	     -2.57808009	      0.00000000	      0.00000000	      6.62084746	      4.89215579	     -3.56133748	    -14.15133346	      6.97337756	      0.00000000	      0.00000000	    -16.49520950	     -6.56165718	      1.13852034
      1.46000000	      6.15597962	      2.23768010	     -5.68829173	      0.19574609	      1.02211034	      0.01172540	     -5.25117473	     -4.74240578	     -4.58736073	    -47.95970050	     -3.59903806	      0.00000000	      0.00000000	      5.73530860	      5.18599176	     -3.77942524	    -13.97854845	      7.36439991	      0.00000000	      0.00000000	    -16.78772893	     -6.65976038	      0.57061605
